{"title":"Thor The Dark World 2013 HDRip XviD Ac3 Feel-Free","uid":9562529,"size":1089070482,"categoryP":"video","categoryS":"movies","magnet":"?xt=urn:btih:23b39819007b593ccffd85e40f7ecfd08daaf811&amp;dn=Thor+The+Dark+World+2013+HDRip+XviD+Ac3+Feel-Free&amp;tr=udp%3A%2F%2Ftracker.openbittorrent.com%3A80&amp;tr=udp%3A%2F%2Fopen.demonii.com%3A1337&amp;tr=udp%3A%2F%2Ftracker.coppersurfer.tk%3A6969&amp;tr=udp%3A%2F%2Fexodus.desync.com%3A6969","seeders":2,"leechers":1,"uploader":".BONE.","files":7,"time":1391457227,"description":"When Jane Foster is possessed by a great power, Thor must protect her from a new threat of old times: the Dark Elves.\n\n\nGenre:Action | Adventure | Fantasy \nLanguage:English\nIMDb:http://www.imdb.com/title/tt1981115/\nSource:720p.WEB-DL.H264-WEBiOS Thanks\nSample:Never\nEncoder:Tony\n\nFormat : AVI\nFormat/Info : Audio Video Interleave\nFile size : 1.01 GiB\nDuration : 1h 52mn\nOverall bit rate : 1 294 Kbps\n\nVideo\nID : 0\nFormat : MPEG-4 Visual\nFormat profile : Advanced Simple@L5\nFormat settings, BVOP : 1\nFormat settings, QPel : No\nFormat settings, GMC : No warppoints\nFormat settings, Matrix : Default (H.263)\nCodec ID : XVID\nCodec ID/Hint : XviD\nDuration : 1h 52mn\nBit rate : 1 157 Kbps\nWidth : 640 pixels\nHeight : 264 pixels\nDisplay aspect ratio : 2.40:1\nFrame rate : 23.976 fps\nColor space : YUV\nChroma subsampling : 4:2:0\nBit depth : 8 bits\nScan type : Progressive\nCompression mode : Lossy\nBits/(Pixel*Frame) : 0.286\nStream size : 927 MiB (89%)\nWriting library : XviD 1.2.1 (UTC 2008-12-04)\n\nAudio\nID : 1\nFormat : AC-3\nFormat/Info : Audio Coding 3\nMode extension : CM (complete main)\nCodec ID : 2000\nDuration : 1h 52mn\nBit rate mode : Constant\nBit rate : 128 Kbps\nChannel(s) : 2 channels\nChannel positions : Front: L R\nSampling rate : 48.0 KHz\nBit depth : 16 bits\nCompression mode : Lossy\nStream size : 103 MiB (10%)\nAlignment : Aligned on interleaves\nInterleave, duration : 42 ms (1.00 video frame)\nInterleave, preload duration : 512 ms","torrent":{"xt":"urn:btih:23b39819007b593ccffd85e40f7ecfd08daaf811","amp;dn":"Thor+The+Dark+World+2013+HDRip+XviD+Ac3+Feel-Free","amp;tr":["udp%3A%2F%2Ftracker.openbittorrent.com%3A80","udp%3A%2F%2Fopen.demonii.com%3A1337","udp%3A%2F%2Ftracker.coppersurfer.tk%3A6969","udp%3A%2F%2Fexodus.desync.com%3A6969"],"infoHash":"23b39819007b593ccffd85e40f7ecfd08daaf811","infoHashBuffer":{"type":"Buffer","data":[35,179,152,25,0,123,89,60,207,253,133,228,15,126,207,208,141,170,248,17]},"announce":[],"urlList":[]}}